<svg width="60" height="34" viewBox="0 0 60 34" fill="none" xmlns="http://www.w3.org/2000/svg">
<path d="M32.9617 33.0817C31.0325 33.6798 28.9675 33.6798 27.0383 33.0817L1.4281 25.1405C-0.225621 24.6277 -0.225619 22.287 1.4281 21.7742V21.7742C1.76805 21.6688 2.13195 21.6688 2.4719 21.7742L27.0383 29.3917C28.9675 29.9899 31.0325 29.9899 32.9617 29.3917L57.5281 21.7742C57.868 21.6688 58.232 21.6688 58.5719 21.7742V21.7742C60.2256 22.287 60.2256 24.6277 58.5719 25.1405L32.9617 33.0817ZM32.9617 22.2755C31.0325 22.8736 28.9675 22.8736 27.0383 22.2755L1.4281 14.3343C-0.225621 13.8215 -0.225619 11.4808 1.4281 10.968V10.968C1.76805 10.8626 2.13195 10.8626 2.4719 10.968L27.0383 18.5855C28.9675 19.1837 31.0325 19.1837 32.9617 18.5855L57.5281 10.968C57.868 10.8626 58.232 10.8626 58.5719 10.968V10.968C60.2256 11.4808 60.2256 13.8215 58.5719 14.3343L32.9617 22.2755ZM32.9617 11.4693C31.0325 12.0674 28.9675 12.0674 27.0383 11.4693L1.4281 3.52809C-0.225621 3.01531 -0.225619 0.674611 1.4281 0.16183V0.16183C1.76805 0.0564189 2.13195 0.0564189 2.4719 0.16183L27.0383 7.77933C28.9675 8.37751 31.0325 8.37751 32.9617 7.77933L57.5281 0.16183C57.868 0.0564186 58.232 0.0564189 58.5719 0.16183V0.16183C60.2256 0.674611 60.2256 3.01531 58.5719 3.52809L32.9617 11.4693Z" fill="#EFEFEF"/>
</svg>
